<?xml version="1.0" standalone="no"?>
<!DOCTYPE svg PUBLIC "-//W3C//DTD SVG 20010904//EN"
 "http://www.w3.org/TR/2001/REC-SVG-20010904/DTD/svg10.dtd">
<svg version="1.0" xmlns="http://www.w3.org/2000/svg"
 width="48.000000pt" height="48.000000pt" viewBox="0 0 48.000000 48.000000"
 preserveAspectRatio="xMidYMid meet">

<g transform="translate(0.000000,48.000000) scale(0.100000,-0.100000)"
fill="#000000" stroke="none">
<path d="M200 460 c-11 -11 -20 -24 -20 -28 0 -14 -57 -42 -87 -42 -34 0 -46
-8 -62 -37 -13 -25 -1 -60 25 -76 18 -10 18 -64 0 -74 -26 -16 -38 -51 -25
-75 16 -30 28 -38 62 -38 37 0 82 -27 96 -56 19 -43 91 -40 105 4 8 24 57 52
93 52 34 0 46 8 62 38 13 24 1 59 -25 75 -18 10 -18 64 0 74 26 16 38 51 25
76 -16 29 -28 37 -62 37 -30 0 -87 28 -87 42 0 16 -40 48 -60 48 -11 0 -29 -9
-40 -20z m60 -26 c11 -12 10 -18 -3 -32 -16 -15 -18 -15 -34 0 -13 14 -14 20
-3 32 7 9 16 16 20 16 4 0 13 -7 20 -16z m-57 -58 c12 -9 17 -27 17 -60 l0
-47 -40 22 c-32 18 -40 28 -40 50 0 16 8 32 18 38 22 13 23 13 45 -3z m118 4
c12 -7 19 -21 19 -39 0 -22 -8 -32 -40 -50 l-40 -22 0 47 c0 33 5 51 18 60 21
16 19 16 43 4z m-216 -50 c0 -29 -32 -41 -41 -16 -9 24 4 48 23 44 12 -2 18
-12 18 -28z m310 0 c0 -29 -32 -41 -41 -16 -9 24 4 48 23 44 12 -2 18 -12 18
-28z m-215 -90 c0 -3 -17 -16 -38 -28 -44 -24 -62 -16 -62 28 0 44 18 52 62
28 21 -12 38 -25 38 -28z m180 1 c0 -45 -18 -53 -62 -29 -21 12 -38 24 -38 28
0 3 17 16 37 27 43 25 63 17 63 -26z m-160 -79 c0 -37 -5 -50 -20 -60 -29 -18
-60 1 -60 36 0 22 8 33 38 50 20 12 38 22 40 22 1 0 2 -21 2 -48z m120 -23 c0
-36 -31 -55 -60 -37 -16 10 -20 23 -20 61 l0 48 40 -22 c32 -18 40 -28 40 -50z
m-235 11 c0 -16 -6 -26 -18 -28 -19 -4 -32 20 -23 44 9 25 41 13 41 -16z m310
0 c0 -29 -32 -41 -41 -16 -9 24 4 48 23 44 12 -2 18 -12 18 -28z m-155 -76
c11 -12 10 -18 -3 -32 -16 -15 -18 -15 -34 0 -13 14 -14 20 -3 32 7 9 16 16
20 16 4 0 13 -7 20 -16z"/>
</g>
</svg>
